<svg  aria-hidden="true" style="position: absolute; width: 0; height: 0; overflow: hidden;" version="1.1" xmlns="http://www.w3.org/2000/svg" xmlns:xlink="http://www.w3.org/1999/xlink">
<defs>

<symbol id="arrow-down-icon" viewBox="0 0 10 7">
<path d="M8.5775 0.744141L5 4.32164L1.4225 0.744141L0.244171 1.92247L5 6.67831L9.75584 1.92247L8.5775 0.744141Z"/>
</symbol>

<symbol id="customs-icon" viewBox="0 0 37 36">
<path d="M22.57 14.656L17.0229 19.7649L14.3607 17.0942C14.0655 16.7979 13.5795 16.7912 13.276 17.079C12.9721 17.3671 12.9652 17.8406 13.2604 18.1369L16.4533 21.333C16.75 21.624 17.2293 21.634 17.5383 21.3553L23.6396 15.7438C23.7878 15.6075 23.8744 15.4194 23.8801 15.221C23.8858 15.0226 23.8103 14.8301 23.6703 14.6859C23.3734 14.3849 22.8838 14.3717 22.57 14.656Z"/>
<path d="M18.4538 6.79348C12.1141 6.79348 6.95916 11.82 6.95916 18.0018C6.95916 24.1839 12.1141 29.2105 18.4538 29.2105C24.7937 29.2105 29.9487 24.1839 29.9487 18.0018C29.9487 11.82 24.7937 6.79348 18.4538 6.79348ZM18.4538 27.71C12.9604 27.71 8.49795 23.351 8.49795 18.0018C8.49795 12.6526 12.9604 8.29395 18.4538 8.29395C23.9525 8.29395 28.4099 12.6403 28.4099 18.0018C28.4099 23.3634 23.9525 27.71 18.4538 27.71Z"/>
<path d="M34.2726 13.8756L34.5265 9.42662C34.5443 9.12799 34.3778 8.84754 34.1034 8.7139L30.0409 6.71084L27.9867 2.74956C27.847 2.48434 27.5611 2.32286 27.2558 2.33693L22.6854 2.57724L18.8769 0.123744C18.6203 -0.0412481 18.2876 -0.0412481 18.0306 0.123744L14.2221 2.57724L9.65985 2.3296C9.3533 2.31202 9.06598 2.47437 8.92893 2.74223L6.87441 6.70351L2.81226 8.70657C2.53997 8.84255 2.37467 9.12125 2.3891 9.41929L2.64276 13.8682L0.126905 17.5819C-0.0423015 17.8322 -0.0423015 18.1566 0.126905 18.4071L2.63524 22.1281L2.38128 26.577C2.36355 26.8757 2.52975 27.1561 2.80445 27.2898L6.8669 29.2928L8.92111 33.2541C9.06057 33.5196 9.34638 33.6808 9.65204 33.6667L14.2146 33.4191L18.0231 35.8723C18.2782 36.0426 18.6142 36.0426 18.8694 35.8723L22.6779 33.4191L27.2405 33.6667C27.5467 33.684 27.834 33.5217 27.9714 33.2541L30.0256 29.2928L34.088 27.2898C34.36 27.1535 34.5256 26.8751 34.5112 26.577L34.2572 22.1281L36.7731 18.4145C36.9423 18.1642 36.9423 17.8395 36.7731 17.5892L34.2726 13.8756ZM32.8414 21.513C32.7476 21.6472 32.704 21.8087 32.7185 21.9707L32.9568 26.1794L29.1176 28.0699C28.9713 28.1414 28.8526 28.2574 28.7792 28.4002L26.8401 32.1437L22.524 31.9113C22.3587 31.9054 22.1955 31.9471 22.0546 32.0312L18.4538 34.3496L14.8532 32.0312C14.7282 31.9488 14.581 31.9043 14.4301 31.9037H14.3916L10.0752 32.1364L8.13639 28.3925C8.06306 28.2498 7.94435 28.1341 7.79768 28.0626L3.95072 26.1794L4.18935 21.9707C4.19536 21.8096 4.15239 21.6504 4.06613 21.513L1.68883 18.0018L4.06613 14.4907C4.1602 14.3568 4.20378 14.195 4.18935 14.0332L3.95072 9.8243L7.79017 7.93378C7.93653 7.86227 8.05525 7.74651 8.12858 7.60379L10.0674 3.85996L14.3838 4.09265C14.5488 4.09822 14.712 4.0566 14.8532 3.97249L18.4538 1.65439L22.0546 3.97249C22.1922 4.06422 22.3581 4.10671 22.524 4.09265L26.8401 3.85996L28.7792 7.60379C28.8526 7.74651 28.9713 7.86227 29.1176 7.93378L32.9568 9.8243L32.7185 14.0332C32.7125 14.1941 32.7554 14.3532 32.8414 14.4907L35.219 18.0018L32.8414 21.513Z"/>
</symbol>



<symbol id="payments-icon" viewBox="0 0 31 36">
<path d="M29.4539 6.20029L18.6854 0.249041C17.6638 -0.315677 16.2592 0.118721 15.7059 1.16128L9.40653 13.1072H1.7451C0.766142 13.1072 0 13.8891 0 14.8883V34.219C0 35.2181 0.766142 36 1.7451 36H26.2191C27.1981 36 27.9642 35.2181 27.9642 34.219V29.7012H28.6878C29.0709 29.7012 29.3688 29.3971 29.3688 29.0062V23.8369C29.3688 23.4459 29.0709 23.1418 28.6878 23.1418H27.9642V18.0594C27.9642 17.234 27.3683 16.4955 26.6022 16.3218L30.3478 9.24108C30.9011 8.15508 30.518 6.80845 29.4539 6.20029ZM21.7925 3.55047L15.0675 16.2783H13.1521L20.3453 2.76855L21.7925 3.55047ZM16.9403 1.81287C17.1531 1.42192 17.6638 1.24816 18.0469 1.46536L19.111 2.07351L11.6198 16.2783H9.27884L16.9403 1.81287ZM1.31947 14.8448C1.31947 14.7145 1.48972 14.4973 1.70254 14.4973H8.64038L7.70399 16.2349H1.70254C1.57485 16.2349 1.44716 16.2349 1.31947 16.2783V14.8448ZM26.5596 34.219C26.5596 34.4362 26.3894 34.6099 26.1765 34.6099H1.70254C1.48972 34.6099 1.31947 34.4362 1.31947 34.219V18.0594C1.31947 17.8422 1.48972 17.6684 1.70254 17.6684H26.134C26.3468 17.6684 26.517 17.8422 26.517 18.0594V23.1418H23.9207C22.7715 23.1418 21.8776 24.0975 21.8776 25.2269V27.6161C21.8776 28.789 22.814 29.7012 23.9207 29.7012H26.5596V34.219ZM27.9642 24.5319V28.3112H23.9207C23.5376 28.3112 23.2397 28.0071 23.2397 27.6161V25.2269C23.2397 24.836 23.5376 24.5319 23.9207 24.5319H27.9642ZM29.1134 8.54604L25.0273 16.2783H16.5998L22.9843 4.2455L28.7729 7.46005C29.1985 7.63381 29.3262 8.15508 29.1134 8.54604Z" />
<path d="M26.517 7.89445L26.1765 7.72069C25.3253 7.24285 24.1761 7.59037 23.7079 8.45916L23.2822 9.28452C23.0694 9.71892 22.9843 10.2402 23.1545 10.718C23.2822 11.1959 23.6227 11.5868 24.0484 11.804L24.3889 11.9778C24.6442 12.1081 24.9422 12.195 25.2401 12.195C25.9212 12.195 26.517 11.804 26.8575 11.2393L27.2832 10.414C27.7088 9.50172 27.3683 8.37228 26.517 7.89445ZM26.0488 9.76236L25.6232 10.5877C25.4955 10.8049 25.1976 10.8918 24.9848 10.7615L24.6443 10.5443C24.5591 10.5008 24.474 10.3705 24.4314 10.2836C24.3889 10.1533 24.3889 10.023 24.474 9.93612L24.8996 9.11076C24.9848 8.98044 25.155 8.85012 25.3253 8.85012C25.4104 8.85012 25.453 8.85012 25.5381 8.89356L25.8786 9.06732C26.0488 9.24108 26.134 9.50172 26.0488 9.76236Z" />
</symbol>



<symbol id="returns-icon" viewBox="0 0 38 36">
<path d="M19.9353 30.1198C20.241 30.1198 20.489 29.8782 20.489 29.5798V28.631C20.489 28.3326 20.241 28.0907 19.9353 28.0907C19.6293 28.0907 19.3813 28.3326 19.3813 28.631V29.5798C19.3813 29.8782 19.6293 30.1198 19.9353 30.1198Z" />
<path d="M30.6862 30.1198C30.9922 30.1198 31.2402 29.8782 31.2402 29.5798V28.631C31.2402 28.3326 30.9922 28.0907 30.6862 28.0907C30.3806 28.0907 30.1325 28.3326 30.1325 28.631V29.5798C30.1325 29.8782 30.3806 30.1198 30.6862 30.1198Z" />
<path d="M25.3106 30.6264C25.9878 30.6264 26.6231 30.3505 27.0545 29.8692C27.2558 29.6447 27.2322 29.3035 27.002 29.1072C26.7716 28.9109 26.4218 28.9336 26.2205 29.1584C25.9996 29.4048 25.6679 29.546 25.3106 29.546C24.9533 29.546 24.622 29.4048 24.401 29.1584C24.1997 28.9336 23.8499 28.9109 23.6195 29.1072C23.3891 29.3035 23.3657 29.6447 23.567 29.8692C23.9982 30.3505 24.6338 30.6264 25.3106 30.6264Z" />
<path d="M7.87449 6.54844C7.87449 6.54844 12.8766 10.8006 12.8813 10.8045C13.7375 11.5327 15.1111 10.9181 15.1111 9.81525V8.9745C16.5747 9.06985 17.9396 9.43495 19.0857 10.0406C20.6355 10.8599 21.8447 12.2964 22.4037 13.9821C22.5848 14.5292 23.1065 14.8966 23.7011 14.8966C23.8427 14.8966 23.9846 14.8853 24.1259 14.8792C24.8677 14.8462 25.4615 14.2122 25.4217 13.4882L25.4211 13.4784C25.3461 12.185 25.0217 10.8906 24.483 9.7348C23.4652 7.55121 21.7251 5.76958 19.1636 4.28807C17.8768 3.5438 16.4712 3.11766 15.1108 2.7067C15.1108 2.7067 15.1108 1.30367 15.1108 1.30255C15.1108 0.202457 13.732 -0.410174 12.8813 0.313282C12.8813 0.313282 7.8817 4.56316 7.87449 4.56935C7.2683 5.08494 7.26945 6.03398 7.87449 6.54844ZM8.60239 5.38394C8.60239 5.38394 13.6019 1.13378 13.6092 1.12759C13.7609 0.998764 14.0034 1.10593 14.0034 1.30255V3.11878C14.0034 3.36968 14.1807 3.58768 14.4314 3.64478C14.5378 3.66897 14.6566 3.70047 14.7659 3.73366C16.1303 4.14574 17.4188 4.53503 18.5986 5.21742C20.9588 6.58248 22.5539 8.2066 23.4747 10.182C23.9572 11.2174 24.2479 12.3783 24.3151 13.5377L24.3154 13.5456C24.3229 13.6795 24.211 13.794 24.0755 13.7999L23.7135 13.8159L23.7011 13.8162C23.5901 13.8162 23.4897 13.7478 23.4574 13.65C22.812 11.7026 21.4107 10.0408 19.6132 9.09066C18.1784 8.33233 16.4501 7.91097 14.6148 7.87187C14.2926 7.86512 14.0031 8.0803 14.0031 8.41109V9.81525C14.0031 10.0088 13.7611 10.1196 13.6089 9.9902L8.60211 5.73414C8.49482 5.64244 8.49511 5.47508 8.60239 5.38394Z" />
<path d="M1.64553 25.3012H2.98482V33.799C2.98482 35.0127 3.99707 36 5.24119 36H32.5588C33.8029 36 34.8152 35.0127 34.8152 33.799V25.3012H36.1544C37.2994 25.3012 38.11 24.1358 37.6855 23.0979L34.7756 15.9829C34.6917 15.7776 34.4878 15.6428 34.2614 15.6428H31.336C31.0303 15.6428 30.7823 15.8847 30.7823 16.1829C30.7823 16.4813 31.0303 16.7232 31.336 16.7232H33.886C33.886 16.7232 36.6502 23.4824 36.6565 23.4982C36.7967 23.8405 36.5308 24.2208 36.1544 24.2208H18.8071C18.5874 24.2208 18.3864 24.088 18.305 23.8889L15.3744 16.7229H29.1209C29.4266 16.7229 29.6746 16.4813 29.6746 16.1829C29.6746 15.8844 29.4266 15.6428 29.1209 15.6428H3.53882C3.31215 15.6428 3.10825 15.7773 3.02433 15.9826C3.02433 15.9826 0.120518 23.0836 0.11475 23.0979C-0.310339 24.1367 0.50033 25.3012 1.64553 25.3012ZM14.5571 31.0149C14.8631 31.0149 15.1111 30.7732 15.1111 30.4748V18.9951L17.2761 24.2894C17.5275 24.904 18.1285 25.3012 18.8071 25.3012H33.7074V33.799C33.7074 34.417 33.1921 34.9196 32.5588 34.9196H15.1111V32.6356C15.1111 32.3372 14.8631 32.0953 14.5571 32.0953C14.2514 32.0953 14.0034 32.3372 14.0034 32.6356V34.9196H5.24119C4.60789 34.9196 4.09253 34.417 4.09253 33.799V25.3012H10.3074C10.9773 25.3012 11.5901 24.8961 11.8384 24.2891L14.0034 18.9951V30.4748C14.0034 30.7732 14.2514 31.0149 14.5571 31.0149ZM1.14344 23.4982L3.91402 16.7232H13.7401C13.7401 16.7232 10.8097 23.8886 10.8095 23.8889C10.7278 24.0889 10.5286 24.2208 10.3074 24.2208C10.3074 24.2208 1.65707 24.2208 1.64553 24.2208C1.26918 24.2208 1.00386 23.8394 1.14344 23.4982Z" />
</symbol>



<symbol id="shipping-icon" viewBox="0 0 37 36">
<path d="M34.6528 15.5119H32.7922C32.6862 15.1103 32.4582 14.7557 32.1426 14.5017C31.8271 14.2478 31.4411 14.1083 31.0431 14.1043H29.0569V9.01957C29.0591 8.92445 29.0372 8.83042 28.9932 8.74712C28.9493 8.66382 28.885 8.59425 28.8069 8.54554L14.7956 0.0733643C14.7167 0.0253121 14.627 0 14.5356 0C14.4443 0 14.3546 0.0253121 14.2756 0.0733643L0.259946 8.54554C0.180642 8.59366 0.114857 8.66282 0.0692204 8.74604C0.0235841 8.82927 -0.00029054 8.92361 2.66848e-06 9.01957V25.964C5.00009e-06 26.0601 0.0241661 26.1545 0.0700579 26.2377C0.11595 26.3209 0.181955 26.39 0.26144 26.438L14.2785 34.9102C14.358 34.9583 14.4482 34.9836 14.5399 34.9836C14.6341 34.9836 14.7267 34.9584 14.8089 34.9102L22.1848 30.4563V33.676C22.1841 33.9825 22.2414 34.2862 22.3535 34.5694C22.4656 34.8526 22.6302 35.1097 22.8379 35.3258C23.0455 35.5419 23.2921 35.7128 23.5632 35.8285C23.8344 35.9442 24.1248 36.0025 24.4176 35.9999H34.6528C34.9464 36.0028 35.2376 35.9448 35.5097 35.8294C35.7818 35.714 36.0294 35.5434 36.2382 35.3274C36.4471 35.1114 36.6131 34.8543 36.7267 34.5709C36.8402 34.2875 36.8991 33.9833 36.9 33.676V17.8721C36.8997 17.2476 36.663 16.6486 36.2419 16.2063C35.8207 15.764 35.2494 15.5143 34.6528 15.5119ZM31.0617 15.1991C31.263 15.1991 31.456 15.2828 31.5983 15.4319C31.7407 15.5809 31.8207 15.783 31.8207 15.9937V16.0467C31.8207 16.2575 31.7407 16.4596 31.5983 16.6086C31.456 16.7576 31.263 16.8413 31.0617 16.8413H28.0232C27.8219 16.8413 27.6288 16.7576 27.4865 16.6086C27.3441 16.4596 27.2642 16.2575 27.2642 16.0467V15.9937C27.2642 15.783 27.3441 15.5809 27.4865 15.4319C27.6288 15.2828 27.8219 15.1991 28.0232 15.1991H31.0617ZM14.5399 1.17948L20.3643 4.69982L7.3939 12.5394L1.5696 9.01903L14.5399 1.17948ZM14.0429 33.488L1.04575 25.6479V9.96648L14.0429 17.8066V33.488ZM14.5399 16.8585L8.43964 13.1714L21.4101 5.33189L27.5107 9.01903L14.5399 16.8585ZM22.1848 17.8721V29.1922L15.0887 33.488V17.8066L28.0111 9.96648V14.1043H28.0273C27.6293 14.1083 27.2433 14.2477 26.9278 14.5017C26.6122 14.7556 26.3842 15.1103 26.2782 15.5119H24.4176C23.8225 15.5149 23.253 15.7653 22.8343 16.2079C22.4156 16.6505 22.1819 17.2492 22.1848 17.8721ZM35.8543 33.676C35.8535 33.8396 35.8218 34.0015 35.7608 34.1521C35.6998 34.3028 35.6109 34.4392 35.4991 34.5536C35.3873 34.668 35.2549 34.7579 35.1097 34.8183C34.9644 34.8786 34.8091 34.9081 34.6528 34.9051H24.4176C24.2621 34.9079 24.1076 34.878 23.9632 34.8174C23.8189 34.7568 23.6876 34.6666 23.577 34.5521C23.4664 34.4376 23.3788 34.3011 23.3193 34.1506C23.2598 34.0002 23.2297 33.8388 23.2306 33.676V17.8721C23.229 17.7074 23.2585 17.5439 23.3173 17.3912C23.3761 17.2384 23.4631 17.0992 23.5734 16.9817C23.6836 16.8642 23.815 16.7705 23.9598 16.7062C24.1047 16.6418 24.2602 16.608 24.4176 16.6067H26.2986C26.4107 16.9942 26.6398 17.3331 26.9515 17.5728C27.2631 17.8125 27.6406 17.9399 28.0273 17.9361H31.0431C31.4298 17.9399 31.8072 17.8125 32.1189 17.5728C32.4306 17.3331 32.6596 16.9942 32.7718 16.6067H34.6528C34.9721 16.6088 35.2776 16.743 35.5027 16.9801C35.7278 17.2172 35.8542 17.5378 35.8543 17.8721V33.676Z" />
<path d="M25.0195 23.41H25.5668C25.7055 23.41 25.8384 23.3523 25.9365 23.2496C26.0346 23.147 26.0896 23.0077 26.0896 22.8626C26.0896 22.7174 26.0346 22.5782 25.9365 22.4755C25.8384 22.3729 25.7055 22.3152 25.5668 22.3152H25.5462V20.8294H26.9883C27.0211 20.9395 27.0875 21.0352 27.1773 21.102C27.2671 21.1688 27.3754 21.2029 27.4854 21.1991C27.6243 21.1994 27.7576 21.1422 27.8562 21.0398C27.9547 20.9374 28.0104 20.7983 28.0111 20.6529V20.2846C28.01 20.1385 27.9538 19.9989 27.8548 19.8959C27.7559 19.7929 27.6221 19.735 27.4826 19.7346H25.0195C24.9509 19.735 24.883 19.7495 24.8198 19.7774C24.7566 19.8052 24.6992 19.8459 24.651 19.8969C24.6028 19.948 24.5647 20.0085 24.5388 20.0751C24.513 20.1416 24.4999 20.2128 24.5004 20.2846V22.8632C24.5 22.9348 24.5131 23.0059 24.539 23.0722C24.5649 23.1385 24.6031 23.1988 24.6513 23.2496C24.6996 23.3004 24.7569 23.3407 24.8201 23.3683C24.8833 23.3958 24.951 23.4099 25.0195 23.41Z" />
<path d="M25.0233 28.4147H27.4883C27.6269 28.4147 27.7599 28.357 27.858 28.2543C27.956 28.1517 28.0111 28.0124 28.0111 27.8673V25.2867C28.0111 25.1415 27.956 25.0023 27.858 24.8997C27.7599 24.797 27.6269 24.7393 27.4883 24.7393H25.0233C24.8846 24.7393 24.7516 24.797 24.6536 24.8997C24.5555 25.0023 24.5004 25.1415 24.5004 25.2867V27.8673C24.5004 28.0124 24.5555 28.1517 24.6536 28.2543C24.7516 28.357 24.8846 28.4147 25.0233 28.4147ZM25.5462 25.8341H26.9654V27.3199H25.5462V25.8341Z" />
<path d="M25.5668 32.3246H25.5462V30.8388H26.9601C26.9628 30.9828 27.0193 31.1199 27.1174 31.2207C27.2156 31.3216 27.3476 31.3781 27.4851 31.3783C27.6226 31.3784 27.7547 31.3221 27.8531 31.2215C27.9514 31.1208 28.0082 30.9838 28.0111 30.8399V30.3125C28.0106 30.1645 27.9552 30.0225 27.8566 29.9164C27.758 29.8104 27.6239 29.7486 27.4826 29.744H25.0195C24.8792 29.749 24.7463 29.8112 24.6493 29.9175C24.5522 30.0237 24.4988 30.1655 24.5004 30.3125V32.891C24.5003 32.9617 24.5138 33.0317 24.5401 33.0968C24.5663 33.1619 24.6048 33.2209 24.6532 33.2701C24.7016 33.3194 24.759 33.358 24.8219 33.3836C24.8848 33.4093 24.952 33.4214 25.0195 33.4194H25.5668C25.7055 33.4194 25.8385 33.3617 25.9366 33.259C26.0346 33.1564 26.0897 33.0171 26.0897 32.872C26.0897 32.7268 26.0346 32.5876 25.9366 32.4849C25.8385 32.3822 25.7055 32.3246 25.5668 32.3246Z" />
<path d="M27.1552 22.0096L26.6894 21.5219C26.6408 21.471 26.5832 21.4307 26.5197 21.4032C26.4563 21.3757 26.3883 21.3615 26.3196 21.3615C26.251 21.3615 26.183 21.3757 26.1195 21.4032C26.0561 21.4307 25.9984 21.471 25.9499 21.5219C25.9013 21.5727 25.8628 21.633 25.8365 21.6995C25.8103 21.7659 25.7967 21.837 25.7967 21.9089C25.7967 21.9808 25.8103 22.052 25.8365 22.1184C25.8628 22.1848 25.9013 22.2452 25.9499 22.296L26.7855 23.1707C26.8341 23.2216 26.8917 23.2619 26.9552 23.2894C27.0186 23.3169 27.0866 23.3311 27.1553 23.3311C27.2239 23.3311 27.2919 23.3169 27.3554 23.2894C27.4188 23.2619 27.4765 23.2216 27.525 23.1707L29.4262 21.1804C29.5242 21.0778 29.5793 20.9385 29.5793 20.7934C29.5793 20.6482 29.5242 20.5089 29.4262 20.4063C29.3281 20.3036 29.1951 20.2459 29.0564 20.2459C28.9178 20.2459 28.7848 20.3036 28.6867 20.4063L27.1552 22.0096Z" />
<path d="M28.6865 30.5136L27.1552 32.1166L26.6894 31.6289C26.6408 31.5781 26.5832 31.5378 26.5197 31.5103C26.4563 31.4827 26.3883 31.4686 26.3196 31.4686C26.251 31.4686 26.183 31.4827 26.1195 31.5103C26.0561 31.5378 25.9984 31.5781 25.9499 31.6289C25.9013 31.6798 25.8628 31.7401 25.8365 31.8065C25.8103 31.8729 25.7967 31.9441 25.7967 32.016C25.7967 32.0879 25.8103 32.1591 25.8365 32.2255C25.8628 32.2919 25.9013 32.3523 25.9499 32.4031L26.7855 33.2778C26.8341 33.3286 26.8917 33.369 26.9552 33.3965C27.0186 33.424 27.0866 33.4382 27.1553 33.4382C27.2239 33.4382 27.2919 33.424 27.3554 33.3965C27.4188 33.369 27.4765 33.3286 27.525 33.2778L29.4262 31.2875C29.5242 31.1848 29.5793 31.0456 29.5793 30.9004C29.5793 30.7552 29.5242 30.616 29.4262 30.5133C29.3281 30.4107 29.1951 30.353 29.0564 30.353C28.9178 30.353 28.7845 30.4109 28.6865 30.5136Z" />
<path d="M34.0509 21.064H30.7668C30.6281 21.064 30.4951 21.1217 30.397 21.2243C30.299 21.327 30.2439 21.4662 30.2439 21.6114C30.2439 21.7566 30.299 21.8958 30.397 21.9985C30.4951 22.1011 30.6281 22.1588 30.7668 22.1588H34.0509C34.1895 22.1588 34.3225 22.1011 34.4206 21.9985C34.5186 21.8958 34.5737 21.7566 34.5737 21.6114C34.5737 21.4662 34.5186 21.327 34.4206 21.2243C34.3225 21.1217 34.1895 21.064 34.0509 21.064Z" />
<path d="M34.0509 26.0687H30.7668C30.6281 26.0687 30.4951 26.1264 30.397 26.229C30.299 26.3317 30.2439 26.4709 30.2439 26.6161C30.2439 26.7613 30.299 26.9005 30.397 27.0032C30.4951 27.1058 30.6281 27.1635 30.7668 27.1635H34.0509C34.1895 27.1635 34.3225 27.1058 34.4206 27.0032C34.5186 26.9005 34.5737 26.7613 34.5737 26.6161C34.5737 26.4709 34.5186 26.3317 34.4206 26.229C34.3225 26.1264 34.1895 26.0687 34.0509 26.0687Z" />
<path d="M34.0509 31.0734H30.7668C30.6281 31.0734 30.4951 31.1311 30.397 31.2337C30.299 31.3364 30.2439 31.4756 30.2439 31.6208C30.2439 31.766 30.299 31.9052 30.397 32.0079C30.4951 32.1105 30.6281 32.1682 30.7668 32.1682H34.0509C34.1895 32.1682 34.3225 32.1105 34.4206 32.0079C34.5186 31.9052 34.5737 31.766 34.5737 31.6208C34.5737 31.4756 34.5186 31.3364 34.4206 31.2337C34.3225 31.1311 34.1895 31.0734 34.0509 31.0734Z" />
</symbol>



<symbol id="warranties-icon" viewBox="0 0 34 36">
<path d="M32.7577 6.2313C27.3417 4.86737 21.8938 2.7435 17.0031 0.0893325C16.7837 -0.0297775 16.5163 -0.0297775 16.2969 0.0893325C11.2656 2.81951 6.11223 4.82856 0.542212 6.2313C0.222966 6.31174 0 6.59158 0 6.91193V14.674C0 22.6569 4.00267 27.9375 7.36047 30.9617C10.9625 34.2058 15.1396 36 16.65 36C18.1603 36 22.3375 34.2058 25.9395 30.9617C29.2973 27.9374 33.3 22.6568 33.3 14.674V6.91193C33.3 6.59165 33.077 6.31174 32.7577 6.2313ZM24.9551 29.9306C22.9602 31.7273 21.0216 32.8616 19.7467 33.4967C18.1309 34.3016 17.0095 34.5938 16.6501 34.5938C16.2906 34.5938 15.1692 34.3017 13.5535 33.4967C12.2785 32.8615 10.3399 31.7273 8.345 29.9306C5.1985 27.0967 1.44783 22.1495 1.44783 14.674V7.45376C6.80212 6.06156 11.7853 4.11221 16.6501 1.50719C21.3915 4.04267 26.6275 6.09053 31.8521 7.45348V14.674C31.8521 22.1495 28.1016 27.0967 24.9551 29.9306Z" />
<path d="M30.2446 8.11196C25.6596 6.81729 21.2003 5.05876 16.9906 2.88525C16.7781 2.7755 16.5231 2.7755 16.3104 2.88561C12.0945 5.06805 7.63527 6.82692 3.05643 8.11329C2.74682 8.20027 2.53362 8.47562 2.53362 8.78872V14.674C2.53362 17.4216 3.06968 20.029 4.12681 22.4239C5.17866 24.8068 6.74746 26.9816 8.7894 28.8879C10.2498 30.2512 11.9362 31.4527 13.6661 32.3623C13.976 32.5253 15.5702 33.3468 16.5185 33.5169C16.5619 33.5247 16.6059 33.5286 16.6499 33.5286C16.6939 33.5286 16.7379 33.5247 16.7813 33.5169C17.7294 33.3469 19.3237 32.5253 19.6336 32.3623C21.3634 31.4527 23.0497 30.2514 24.5103 28.8879C26.5523 26.9817 28.121 24.8069 29.1729 22.424C30.2303 20.029 30.7664 17.4216 30.7664 14.674V8.78717C30.7664 8.47449 30.5537 8.19929 30.2446 8.11196ZM29.3185 14.674C29.3185 19.8331 27.3632 24.2743 23.5072 27.8739C22.1392 29.151 20.5615 30.2753 18.9445 31.1256C18.2085 31.5125 17.215 31.9636 16.65 32.1053C16.0849 31.9636 15.0914 31.5126 14.3555 31.1256C12.7384 30.2753 11.1607 29.151 9.79275 27.8739C5.93667 24.2743 3.98152 19.8332 3.98152 14.674V9.31515C8.35064 8.05156 12.6085 6.36665 16.6513 4.3015C20.6877 6.35815 24.9451 8.04242 29.3185 9.31283V14.674Z" />
<path d="M10.6434 25.1933L10.6258 25.1748C10.3544 24.8898 9.89634 24.8725 9.60287 25.1362C9.30939 25.3998 9.29151 25.8447 9.56305 26.1298C9.56305 26.1298 9.56935 26.1364 9.57196 26.1391C9.7145 26.29 9.90966 26.3668 10.1056 26.3668C10.2781 26.3668 10.4512 26.3072 10.5896 26.1863C10.8867 25.9264 10.9108 25.4818 10.6434 25.1933Z" />
<path d="M14.5481 28.3849C13.6762 27.8505 12.8365 27.2344 12.0525 26.5536C11.7546 26.2948 11.2968 26.3196 11.0304 26.6093C10.7639 26.8987 10.7895 27.3433 11.0876 27.6021C11.9313 28.3347 12.8357 28.9983 13.7754 29.5742C13.8953 29.6478 14.0289 29.6828 14.161 29.6828C14.4012 29.6828 14.6362 29.5667 14.7739 29.3548C14.9874 29.0263 14.8861 28.5921 14.5481 28.3849Z" />
<path d="M22.9888 12.3319C22.562 11.9174 21.9929 11.6891 21.3865 11.6891C20.78 11.6891 20.2109 11.9174 19.7841 12.3319L15.1848 16.7993L13.5157 15.1783C13.089 14.7637 12.52 14.5354 11.9135 14.5354C11.307 14.5354 10.738 14.7637 10.3111 15.1783C9.42761 16.0364 9.42761 17.4327 10.3111 18.2908L13.5825 21.4682C14.0093 21.8827 14.5783 22.111 15.1848 22.111C15.7913 22.111 16.3603 21.8827 16.7871 21.4682L22.9888 15.4445C23.4156 15.03 23.6506 14.4773 23.6506 13.8882C23.6506 13.2991 23.4156 12.7465 22.9888 12.3319ZM21.9649 14.4502L15.7633 20.4738C15.6099 20.6227 15.4045 20.7048 15.1848 20.7048C14.965 20.7048 14.7595 20.6228 14.6062 20.4738L11.335 17.2965C11.1817 17.1476 11.0972 16.948 11.0972 16.7346C11.0972 16.5212 11.1817 16.3216 11.335 16.1727C11.4884 16.0238 11.6938 15.9418 11.9135 15.9418C12.1332 15.9418 12.3386 16.0238 12.492 16.1727L14.6729 18.2909C14.9556 18.5655 15.414 18.5655 15.6967 18.2909L20.808 13.3264C20.9613 13.1774 21.1667 13.0954 21.3865 13.0954C21.6062 13.0954 21.8116 13.1775 21.9649 13.3264C22.1183 13.4753 22.2027 13.6749 22.2027 13.8883C22.2027 14.1018 22.1183 14.3013 21.9649 14.4502Z" />
</symbol>



<symbol id="wholesale-icon" viewBox="0 0 36 36">
<path d="M17.4 15.0698H19.8V16.2658H17.4V15.0698Z" />
<path d="M24.6 15.0698H27V16.2658H24.6V15.0698Z" />
<path d="M24.6 19.8539H27V21.0499H24.6V19.8539Z" />
<path d="M17.4 19.8539H19.8V21.0499H17.4V19.8539Z" />
<path d="M17.4 24.6379H19.8V25.8339H17.4V24.6379Z" />
<path d="M24.6 24.6379H27V25.8339H24.6V24.6379Z" />
<path d="M24 32.412H25.2V33.608H24V32.412Z" />
<path d="M34.2 9.32893L18 0L1.8 9.32893V24.0399H3V10.0464L18 1.43515L33 10.0464V34.804H27C27.3 34.4451 27.4799 34.0264 27.5399 33.608H30C31.0198 33.608 31.8 32.8304 31.8 31.814V28.8239C31.8 27.8072 31.0198 27.0299 30 27.0299V14.4718C30 13.515 29.2198 12.6778 28.2601 12.6778H16.1399C15.1799 12.6778 14.4 13.515 14.4 14.4718V27.0299H13.2V16.8638H12V18.0599H9.11982C8.46006 18.0599 7.86006 18.4184 7.56006 19.0164L3.23994 27.0895C3.06006 27.3289 3 27.6279 3 27.9269V31.814C3 32.8304 3.77988 33.608 4.8 33.608H6.06006C6.17988 34.0264 6.36006 34.4451 6.6 34.804H0V36H36V34.804H34.2V9.32893ZM11.9399 33.608H21.6601C21.7799 34.0264 21.9601 34.4451 22.2 34.804H11.4C11.6399 34.4451 11.8198 34.0264 11.9399 33.608ZM22.8 33.01C22.8 31.9933 23.5799 31.216 24.6 31.216C25.6198 31.216 26.4 31.9933 26.4 33.01C26.4 34.0264 25.6198 34.804 24.6 34.804C23.5799 34.804 22.8 34.0264 22.8 33.01ZM22.8 27.0299V23.4419H28.8V27.0299H22.8ZM22.8 18.6579H28.8V22.2459H22.8V18.6579ZM21.6 22.2459H15.6V18.6579H21.6V22.2459ZM28.8 14.4718V17.4619H22.8V13.8738H28.2601C28.5601 13.8738 28.8 14.1728 28.8 14.4718ZM16.1399 13.8738H21.6V17.4619H15.6V14.4718C15.6 14.1728 15.8399 13.8738 16.1399 13.8738ZM15.6 23.4419H21.6V27.0299H15.6V23.4419ZM8.57988 19.5549C8.7 19.3753 8.87988 19.2559 9.11982 19.2559H12V27.0299H4.61982L8.57988 19.5549ZM4.2 31.814V28.2259H30C30.3601 28.2259 30.6 28.4651 30.6 28.8239V31.814C30.6 32.1725 30.3601 32.412 30 32.412H27.5399C27.1799 30.7972 25.6198 29.7209 24 30.0795C22.8 30.319 21.9 31.216 21.6601 32.412H11.9399C11.5799 30.7972 10.0198 29.7209 8.4 30.0795C7.2 30.319 6.3 31.216 6.06006 32.412H4.8C4.43994 32.412 4.2 32.1725 4.2 31.814ZM7.2 33.01C7.2 31.9933 7.97988 31.216 9 31.216C10.0198 31.216 10.8 31.9933 10.8 33.01C10.8 34.0264 10.0198 34.804 9 34.804C7.97988 34.804 7.2 34.0264 7.2 33.01Z" />
<path d="M8.4 32.412H9.6V33.608H8.4V32.412Z" />
<path d="M21.6 5.7409L18 3.58803L14.4 5.7409V10.8838H21.6V5.7409ZM15.6 6.45833L17.4 5.38204V9.68779H15.6V6.45833ZM20.4 9.68779H18.6V5.38204L20.4 6.45833V9.68779Z" />
</symbol>
</defs>
</svg>